# xmcd
#
# Track frame offsets: 
#        150
#        10998
#        29010
#        41554
#        66469
#        84445
#        95250
#        109703
#        134971
#        154025
#        175131
#        187052
#        200780
#        214641
#        227299
#        241084
#        256204
#        274580
#        286911
#        300517
#        324450
#
# Disc length: 4461 seconds
#
# Revision: 0
# Processed by: cddbd v1.5.2PL0 Copyright (c) Steve Scherf et al.
# Submitted via: ExactAudioCopy v1.3
#
DISCID=27116b15
DTITLE=David Allan Coe - 4 Classic Albums 1974-1978
DYEAR=2013
DGENRE=Country
TTITLE0=A Bad Country Song
TTITLE1=Crazy Mary
TTITLE2=River
TTITLE3=The 33rd Of August
TTITLE4=Bossier City
TTITLE5=Atlanta Song
TTITLE6=Old Man Tell Me
TTITLE7=Desperados Waiting For The Train
TTITLE8=I Still Sing The Old Songs
TTITLE9=The Old Grey Goose Is Dead
TTITLE10=I Would You Lay With Me (In A Field Of Stone)
TTITLE11=Jody Like A Melody
TTITLE12=Loneliness In Ruby's Eyes
TTITLE13=Would You Be My Lady
TTITLE14=Sweet Vibrations (Some Folks Call It Love)
TTITLE15=Another Pretty Country Song
TTITLE16=Piece Of Wood And Steel
TTITLE17=Fraulein
TTITLE18=Shine It On
TTITLE19=You Never Even Called Me By My Name
TTITLE20=(If I Could Climb) The Walls Of The Bottle
EXTD=
EXTT0=
EXTT1=
EXTT2=
EXTT3=
EXTT4=
EXTT5=
EXTT6=
EXTT7=
EXTT8=
EXTT9=
EXTT10=
EXTT11=
EXTT12=
EXTT13=
EXTT14=
EXTT15=
EXTT16=
EXTT17=
EXTT18=
EXTT19=
EXTT20=
PLAYORDER=
